<?xml version="1.0" encoding="UTF-8"?> <!-- Generator: Adobe Illustrator 22.1.0, SVG Export Plug-In . SVG Version: 6.00 Build 0) --> <svg xmlns="http://www.w3.org/2000/svg" xmlns:xlink="http://www.w3.org/1999/xlink" version="1.1" id="Livello_1" x="0px" y="0px" viewBox="0 0 500 500" style="enable-background:new 0 0 500 500;" xml:space="preserve"> <style type="text/css"> .st0{fill:#FFFFFF;} .st1{fill:none;stroke:#BB2428;stroke-width:6.3392;stroke-miterlimit:10;} .st2{fill:#9C9B9B;} .st3{fill:#BB2428;} </style> <g> <g id="XMLID_5_"> <g> <rect x="91.5" y="91.5" transform="matrix(0.7071 -0.7071 0.7071 0.7071 -103.5576 249.9918)" class="st0" width="317" height="317"></rect> </g> <g> <rect x="91.5" y="91.5" transform="matrix(0.7071 -0.7071 0.7071 0.7071 -103.5576 249.9918)" class="st1" width="317" height="317"></rect> </g> </g> <g id="XMLID_1_"> <g> <path class="st0" d="M382.4,251.9c2.3,2.2-0.8,5.3,0,8.4c-1.1,0.6-1.1,2.4-1.5,3.8c-0.2,3.1-2.3,4.3-2.3,7.6 C377.1,265.4,381.7,258.5,382.4,251.9z"></path> <path class="st2" d="M360.4,204.8c-2.4,2.1-8.9,5-12.2,1.5c0.3-4.9,0.7-6.7-0.8-10.6c-1.1-2.4-4.2-3-5.3-5.3l7.3-4.8 c0.6,0.8,1.2,1.7,1.8,2.5c2.7,0.1,3.9-1.3,6.2-1.6l0.6,9.2C358.7,198.8,360.1,201.2,360.4,204.8z"></path> <path class="st0" d="M335.3,232.9c-4.3,2.5-10.3,2.9-10.7-3.8c-0.3-2-0.4-4.2-1.5-5.3c0-0.5,0-1,0-1.5c1.2-2.9,4.9-3.2,6.1-6.1 c1.6-10,4.2-19.1,9.1-25.9c1.3,0,2.5,0,3.8,0c1.2,2.3,4.2,2.9,5.3,5.3c1.5,4,1,5.8,0.8,10.6c3.3,3.5,9.7,0.5,12.2-1.5 c-0.3-3.5-1.6-6-2.3-9.1c4.2-0.1,4.5-4.1,6.8-6.1c4,1.6,6.6,0.6,9.2,0.8c0.7,2.1,2.3,3.2,3,5.3c-1.6,9.7-6.9,15.9-12.2,22.1 c0.9,7,1.6,14.2,3.1,20.5c0,0.5,0,1,0,1.5c0.4,7.2,1.1,14.1,0.8,22.1c0.1,1.9-1,1.3-0.8,0c0-1.3,0-2.5,0-3.8c0-2.3,0-4.6,0-6.8 c-3.4-12.9-0.4-32-11.4-37.3c-8.6,1.6-13.3,7-19.7,10.6c0,0.5,0,1,0,1.5c0,0.3,0,0.5,0,0.8C335.3,227.9,336.3,231.5,335.3,232.9z "></path> <path class="st0" d="M335.3,166.7c5.7,9,16.6,12.7,24.3,19.8c-0.8-0.1-1.5-0.1-2.1,0c-2.3,0.3-3.5,1.6-6.2,1.6 c-0.6-0.9-1.2-1.7-1.8-2.5c-4.5-5.7-10-10.4-15.7-15c0.3-1.8-1.4-1.6-0.8-3.8C333.7,166.7,334.5,166.7,335.3,166.7z"></path> <path class="st2" d="M328.4,138.6c2-0.6,4.2,2.3,5.3,0c-2.1-0.7-4.8-3.6-7.4-3.6l6.4-6.1c18.5,13.2,32.8,30.6,44.3,50.7 c0.3,0,0.5,0,0.8,0c-0.1,1.4,1,1.6,0.8,3c2.7,3.7,4.5,8.2,6.1,12.9h-7.6c-0.7-2.1-2.3-3.2-3-5.3c-2.6-0.1-5.1,0.8-9.2-0.8 c-2.3,2-2.6,6-6.8,6.1l-0.6-9.2c0.6-0.1,1.3-0.1,2.1,0c-7.7-7-18.6-10.8-24.3-19.8c-0.8,0-1.6,0-2.3,0l-3-8.4 C331.2,152.4,328.9,145.1,328.4,138.6z"></path> <path class="st0" d="M335.3,292.2c7.9-1.3,12.4-9.8,18.2-10.6c0.2,8.4,6.2,11,9.1,16.7c4.3-3.3,5.3-10,6.1-16.7 c0.9-0.1,0.6-1.4,0.7-2.3c2.4,0.4,3-1.1,4.6-1.5c0.7-0.3,1.3-0.7,1.5-1.5c0.6,2.4-3.1,7-3.8,10.6c-1.1,0.6-1.6,1.9-1.5,3.8 c-2.9,3.2-3.3,8.9-5.3,12.9c0.1,3.2,2.5,4.1,3.1,6.8c0.1,4.2,0.1,8.2-0.8,11.4c-8.2,9.1-16,22.6-25.1,28.1 c-1.9-13.4,13.5-13.2,9.9-25.9c-0.1-1.5-2.5,0.9-4.5,0c0-2.3,0-4.6,0-6.8c0-0.8,0-1.5,0-2.3c1.3-6.9,4.3-19.4-3.1-19 c-3.6,2.2-1.7,9.9-3,14.5c0,0.3,0,0.5,0,0.8c-1.7,16.3-3.1,32.9-8.4,45.6c-4.5-15.2-8.4-30.1-12.9-44.9 c-4.5-14.6-11.2-28-15.9-41.8c0-1.3,0-2.5,0-3.8c-0.2-2.2,1.7-2.3,1.5-4.6c3.3-4.6,7.2-8.5,10.7-12.9c0.7,3-2.5,8.7-1.6,14.5 c0,0.3,0,0.5,0,0.8C313.6,281.5,325.1,286.1,335.3,292.2z"></path> <path class="st0" d="M297.2,181.9c-1.6-1.1-2.9-2.5-4.2-3.8c-1.3-1.4-2.6-2.7-4.2-3.8c4-2.1,9.8-2.4,9.2-9.1l7.5-0.1 C305.7,172.6,304.4,178.9,297.2,181.9z"></path> <path class="st0" d="M294.1,224.5c0.3-1.8-1.4-1.6-0.8-3.8c-0.1-0.2-0.2-0.3-0.3-0.5l3.4-1.9c0.7,0.7,2.4,2.6,3.6,4.8 c3.4,5.5,5.9,11.8,13.8,12.8c-0.2,0.6-0.5,1.2-0.7,1.8c-0.3,1.5-1.1,4.9-4.6,9.4c0,0,0,0.1,0,0.1c-0.1,0.1-0.1,0.1-0.2,0.2 c-1,1.3-2.2,2.6-3.6,4c0,0,0,0,0-0.1c-1.6,2.3-3.2,4.7-6.1,5.8c-1.4-4.2-4.6-6.6-6.1-10.6c0.6-1.9,1-4.1,0.7-6.8 C295.2,236.2,293.7,229.4,294.1,224.5z"></path> <path class="st0" d="M288.8,374.4c1.5,0.2,1.7-0.9,3.1-0.8c0-0.3,0-0.5,0-0.8c0.7,0.3,1.5,0.6,2.3,0.9c4.4,1.3,10.1,1.4,14.4,2.9 c-1.3,1.4-3.8,1.5-5.5,2.5c-0.2,0.2-0.4,0.3-0.6,0.5c-0.3,0-0.5,0-0.8,0C296.4,379,292.7,376.6,288.8,374.4z"></path> <path class="st0" d="M256.1,116.5c12.5-1,24.9-1.7,33.5,3c5.1,2.8,7.4,8.2,12.2,9.9c3.8,1.2,8.7-3.2,9.2,1.5 c-0.1,4.2-6.8,1.9-9.2,3.8C286.1,129.1,273.7,120.2,256.1,116.5z"></path> <path class="st2" d="M288.8,374.4l-7.8,0.3c-0.8-1.9-3.8-7.8-1.3-11.7c7.3-2.2,12,2,15.9,5.3l-1.4,5.4c-0.8-0.2-1.6-0.5-2.3-0.9 c0,0.3,0,0.5,0,0.8C290.5,373.5,290.3,374.6,288.8,374.4z"></path> <path class="st2" d="M287.2,180.3c-6.9-6.1-14.2-11.4-21.1-15.1l1.9-4.2c4.2,1.9,8.6,3.6,12.5,5.8c0.9-4.1,0.2-5.5-0.8-8.1 c-0.6-2.9-2.5-4.8-3.8-6.3c0,0,0,0-0.1-0.1c-0.1-0.1-0.1-0.2-0.2-0.3c-2.3-3.5-4-7.8-5-12.7c1.7-0.9,3.1-2,6.1-1.5 c5.3,5.7,7.8,14,12.9,19.8c1.1,0.4,1.9,1.2,2.3,2.3c2.2,1.6,5.6,2,6.1,5.3c0.6,6.7-5.1,7-9.2,9.1c1.6,1.1,2.9,2.4,4.2,3.8 L287.2,180.3z"></path> <path class="st0" d="M246,256.8h8.4v-28H246V256.8z M238.2,294.5h16.2c3,0,5.3-0.7,6.9-2.2c1.6-1.5,2.4-3.4,2.4-5.8 c0-1.8-0.5-3.3-1.5-4.5c-1-1.2-2.5-2.1-4.4-2.9c0.6-0.3,1.2-0.6,1.8-1.2c0.6-0.5,1.1-1.3,1.5-2.1c0.4-0.9,0.6-1.8,0.6-2.9 c0-0.9-0.2-1.8-0.6-2.6c-0.4-0.8-1-1.5-1.8-2.1c-0.8-0.6-1.8-1-3.1-1.4c-1.3-0.3-2.8-0.5-4.6-0.5h-13.5V294.5z M245.6,304.3 l-12.4,28l-4.8,1.4c-1.3-4.2-2.3-8.5-3.2-12.9c-2-9.5-3.4-19.5-5.5-29.2c-4.1-19.1-7.9-39.3-7.6-59.3c0.4-3.1,4.8-2.3,6.1-4.6 c0.3,0,0.5,0,0.8,0c13-8.2,34.5-11.5,50.9-6.8c3.1,0.9,6,2.1,8.6,3.5c0,0.1-0.1,0.1-0.1,0.2c0.2,0.1,0.3,0.1,0.5,0.1 c3.4,2,6.3,4.4,8.6,7.5c-0.8,18.3-4.6,37.2-7.6,56.3c-2.4,15.1-4.3,30.5-7.5,44.9l-5-1.1l-12.3-28H245.6z"></path> <path class="st0" d="M233.2,332.2h8.7l2.3-5.7h12.1l2.3,5.7h8.7l5,1.1c-0.7,3.4-1.5,6.6-2.4,9.9c-1.4,1.3-3.3,2.3-5.4,3 c-8.7,2.9-22,1.3-31.1,0c-2-4-3.6-8.2-4.9-12.6L233.2,332.2z"></path> <path class="st0" d="M266,165.2c7,3.7,14.3,9,21.1,15.1c8.8,7.8,17,16.8,23,25.2c-1,1-3.6,0.5-4.6,1.5c-0.8,6-5.7,7.8-9,11.3 l-3.4,1.9c-1.4-2.5-2.8-4.9-4.2-7.4c-4.8-8.5-9.8-17-13.9-26.3c0,0,0,0,0-0.1c0,0,0,0-0.1,0c-0.2-0.5-0.5-1-0.7-1.5 c-2.4-3.4-5.5-6.1-9.1-8.4c0-3.5,0-7.1,0-10.6C265,165.5,265.7,165,266,165.2z"></path> <path class="st2" d="M378.6,271.7c0-3.3,2.1-4.5,2.3-7.6c0.4-1.4,0.4-3.2,1.5-3.8c-0.8-3.1,2.3-6.2,0-8.4 C381.7,258.5,377.1,265.4,378.6,271.7z M353.5,281.6c-5.8,0.9-10.3,9.4-18.2,10.6c-10.1-6.1-21.7-10.8-20.6-28.1 c0-0.3,0-0.5,0-0.8c-0.9-5.8,2.3-11.4,1.6-14.5c-3.5,4.4-7.4,8.3-10.7,12.9c0.2,2.2-1.7,2.3-1.5,4.6c0,1.3,0,2.5,0,3.8 c4.8,13.9,11.5,27.2,15.9,41.8c4.5,14.8,8.4,29.7,12.9,44.9c5.3-12.8,6.7-29.3,8.4-45.6c0-0.3,0-0.5,0-0.8 c1.3-4.5-0.6-12.3,3-14.5c7.4-0.3,4.4,12.1,3.1,19c0,0.8,0,1.5,0,2.3c0,2.3,0,4.6,0,6.8c2,0.9,4.5-1.5,4.5,0 c3.7,12.7-11.7,12.5-9.9,25.9c9.1-5.6,16.9-19,25.1-28.1c0.8-3.2,0.9-7.2,0.8-11.4c-0.6-2.8-2.9-3.6-3.1-6.8 c2.1-4.1,2.4-9.8,5.3-12.9c-0.1-1.9,0.4-3.2,1.5-3.8c0.7-3.6,4.4-8.3,3.8-10.6c-0.2,0.9-0.8,1.2-1.5,1.5 c-1.6,0.4-2.2,1.9-4.6,1.5c-0.1,0.9,0.2,2.2-0.7,2.3c-0.9,6.8-1.8,13.5-6.1,16.7C359.7,292.6,353.7,290,353.5,281.6z M272.9,344.7c-2.1,1.8-4.7,3.1-7.6,4.1l-0.9-2.6c2.1-0.7,4-1.7,5.4-3c0.9-3.2,1.7-6.5,2.4-9.9c3.2-14.4,5.1-29.8,7.5-44.9 c3-19,6.8-38,7.6-56.3c-2.3-3.1-5.2-5.5-8.6-7.5c-0.2,0-0.3,0-0.5-0.1c0-0.1,0.1-0.1,0.1-0.2c-2.6-1.5-5.5-2.7-8.6-3.5l1.9-5.5 c4.7,1.6,9.3,3.3,14.2,4.7c0-0.8,0-1.5,0-2.3c0-0.5-0.4-1.4-1-2.4l4.2-2.4c1.4,2.4,2.8,4.9,4.2,7.4c0.1,0.2,0.2,0.3,0.3,0.5 c-0.6,2.2,1.1,2,0.8,3.8c-0.5,4.8,1,11.7-0.8,15.2c0.3,2.8-0.1,4.9-0.7,6.8c1.5,4.1,4.7,6.5,6.1,10.6c2.9-1.1,4.4-3.5,6.1-5.8 c0,0,0,0,0,0.1c1.4-1.4,2.6-2.7,3.6-4c0.1,0,0.1-0.1,0.2-0.2c0,0,0-0.1,0-0.1c3.5-4.5,4.3-8,4.6-9.4c0.2-0.6,0.5-1.2,0.7-1.8 c-7.9-1-10.4-7.4-13.8-12.8c-1.2-2.2-2.9-4.1-3.6-4.8c3.3-3.5,8.2-5.3,9-11.3c1-1,3.6-0.5,4.6-1.5c-6-8.4-14.1-17.4-23-25.2 l5.9-2.2c1.3,1.3,2.6,2.7,4.2,3.8c7.2-3.1,8.5-9.3,8.2-16.9c-0.2-4.9-1-10.3-1.4-15.8c1.3-0.7,1.2-2.8,3-3c9.1-1,11,5.3,16,8.4 c0.3,0,0.5,0,0.8,0c2.1,1.1,3.2,3.4,6.1,3.8l3,8.4c-0.6,2.2,1.1,2,0.8,3.8c5.7,4.6,11.2,9.3,15.7,15l-7.3,4.8c-1.3,0-2.6,0-3.8,0 c-4.8,6.8-7.5,15.8-9.1,25.9c-1.1,2.9-4.9,3.2-6.1,6.1c0,0.5,0,1,0,1.5c1.1,1.1,1.2,3.3,1.5,5.3c0.3,6.7,6.3,6.3,10.7,3.8 c1.1-1.4,0-5,1.5-6.1c0-0.3,0-0.5,0-0.8c0-0.5,0-1,0-1.5c6.4-3.7,11.2-9.1,19.7-10.6c11,5.3,8.1,24.4,11.4,37.3 c0,2.3,0,4.6,0,6.8c0,1.3,0,2.5,0,3.8c-0.2,1.3,0.9,1.9,0.8,0c0.3-8-0.3-14.9-0.8-22.1c0-0.5,0-1,0-1.5 c-1.5-6.3-2.2-13.5-3.1-20.5c5.3-6.1,10.5-12.3,12.2-22.1h7.6c0,0.3,0,0.5,0,0.8c6.6,13.2,9.7,29.9,11.4,47.9c0,0.3,0,0.5,0,0.8 c0,3.3,0,6.6,0,9.9c0,0.3,0,0.5,0,0.8c-0.4,36.6-11,62.9-26.9,84.1l0-0.2c-2.6,3.5-21.6,28.3-52.5,42.7c-1.2,0.6-2.3,1.2-3.4,1.8 c-2.3,1.1-4.8,2.1-7.2,3l-2.9-8c1.6-1,4.2-1.2,5.5-2.5c-4.2-1.5-9.9-1.6-14.4-2.9l1.4-5.4c3.3-0.7,6.2-3.5,9.9-1.5 c0.6-8.3,8.6-9.1,15.2-11.4c0-2.5,0-5.1,0-7.6c0-1.8,0-3.5,0-5.3c-8.6-23.6-13.5-50.9-25.9-70.7c-0.9-0.2-1.2-0.9-1.5-1.5 c-1.5,0-1,2.1-3,1.5c-4.3,1.6-4.4,7.2-5.3,12.2c0,2,0,4.1,0,6.1c-0.7,2.9-0.3,6.9-1.6,9.1c0.6,3.4-1,4.6-0.8,7.6 c-2.3,9.6-3.7,20.1-7.6,28.1c5.1,10.6,20.7,14.9,21.3,27.4C286.9,358.1,281.5,349.7,272.9,344.7z"></path> <path class="st0" d="M258.4,174.3c-6.3,1-11.9,2.8-19.8,2.3c-2.9-2.8-3.9-9.4-2.3-14.5c3-4.3,14.5-3.5,20.5-2.3 C258,164,258.8,168.6,258.4,174.3z"></path> <rect x="246" y="228.8" class="st3" width="8.4" height="28"></rect> <path class="st0" d="M255.3,286.2c0,2.4-1.7,3.6-5.2,3.6h-3.4v-7.2h3.4C253.5,282.6,255.3,283.8,255.3,286.2z"></path> <path class="st0" d="M256.9,358.4c-6.7,0.6-12.5-0.6-12.9-6.1c7.7-0.6,15.2-1.4,21.3-3.5c2.9-1,5.5-2.3,7.6-4.1 c8.7,5,14,13.3,23.6,17.5c-0.6-12.5-16.2-16.8-21.3-27.4c3.9-8.1,5.4-18.5,7.6-28.1c-0.3-3,1.4-4.2,0.8-7.6 c1.3-2.3,0.9-6.3,1.6-9.1c0-2,0-4.1,0-6.1c0.9-4.9,1-10.6,5.3-12.2c2.1,0.5,1.5-1.5,3-1.5c0.3,0.7,0.7,1.4,1.5,1.5 c12.4,19.8,17.3,47.1,25.9,70.7c0,1.8,0,3.5,0,5.3c0,2.5,0,5.1,0,7.6c-6.6,2.3-14.6,3.1-15.2,11.4c-3.7-2-6.6,0.8-9.9,1.5 c-3.9-3.4-8.7-7.5-15.9-5.3c-2.5,4,0.5,9.8,1.3,11.7c0.1,0.2,0.2,0.3,0.2,0.4c-9,0.4-16.4,6.3-24.3,5.3c3.2-4.4,11.2-4.1,16-6.8 c-3.6-5.3-9.7-8-10.7-16C260.4,358,258.6,358.3,256.9,358.4C256.9,358.4,256.9,358.4,256.9,358.4z"></path> <polygon class="st0" points="254.3,321.7 246.1,321.7 250.2,311.5 "></polygon> <path class="st0" d="M252.6,271.9c0.9,0.4,1.3,1.3,1.3,2.7c0,1.3-0.4,2.2-1.3,2.7c-0.9,0.4-2.2,0.7-4.2,0.7h-1.8v-6.7h1.8 C250.3,271.2,251.7,271.4,252.6,271.9z"></path> <path class="st3" d="M248.5,277.9c1.9,0,3.3-0.2,4.2-0.7c0.9-0.4,1.3-1.3,1.3-2.7c0-1.4-0.4-2.3-1.3-2.7 c-0.9-0.4-2.3-0.7-4.2-0.7h-1.8v6.7H248.5z M250.1,289.8c3.5,0,5.2-1.2,5.2-3.6c0-2.4-1.7-3.6-5.2-3.6h-3.4v7.2H250.1z M254.4,294.5h-16.2v-28h13.5c1.7,0,3.3,0.2,4.6,0.5c1.3,0.3,2.3,0.8,3.1,1.4c0.8,0.6,1.4,1.3,1.8,2.1c0.4,0.8,0.6,1.7,0.6,2.6 c0,1-0.2,2-0.6,2.9c-0.4,0.9-0.9,1.6-1.5,2.1c-0.6,0.6-1.2,1-1.8,1.2c1.9,0.7,3.4,1.7,4.4,2.9c1,1.1,1.5,2.6,1.5,4.5 c0,2.4-0.8,4.3-2.4,5.8C259.6,293.8,257.3,294.5,254.4,294.5z"></path> <path class="st0" d="M233.8,148.6c1.3,0,2.7-0.3,4.1-0.9c-2.9-5.9-10.6-7.1-17.5-9.1c-0.2-1.8-0.9-3.1-1.5-4.6 c-0.3-8.1,8.8-8.5,6.8-16c34.1,0.6,56.8,12.6,78.4,25.9c2.7-0.1,2.8-2.8,6.1-2.3c2.5,1.7,4.2,4.4,6.8,6.1c0.3,0,0.5,0,0.8,0 c1.6,2.9,4.8,4.2,8.3,5.3c3.4-3-0.1-14.7-0.9-17c-0.2-0.2-0.4-0.3-0.7-0.5c0.6-0.4,1.2-0.5,1.8-0.5c2.5,0,5.2,2.9,7.4,3.6 c-1.1,2.3-3.3-0.6-5.3,0c0.5,6.6,2.8,13.8,1.5,19.8c-2.9-0.4-4-2.7-6.1-3.8c-0.3,0-0.5,0-0.8,0c-5-3.1-6.9-9.4-16-8.4 c-1.8,0.3-1.7,2.3-3,3c0.3,5.5,1.2,11,1.4,15.8l-7.5,0.1c-0.5-3.3-3.9-3.7-6.1-5.3c-0.4-1.1-1.2-1.9-2.3-2.3 c-5.1-5.8-7.7-14.1-12.9-19.8c-2.9-0.4-4.4,0.7-6.1,1.5c1,4.9,2.7,9.1,5,12.7c0.1,0.1,0.2,0.2,0.2,0.3c0,0,0,0.1,0.1,0.1 c1.3,1.5,3.2,3.4,3.8,6.3c1,2.5,1.6,4,0.8,8.1c-3.9-2.2-8.3-3.9-12.5-5.8c-6-2.6-11.7-5.5-15.6-10.2c-0.8,0-1.6,0-2.3,0 c-0.3,0-0.5,0-0.8,0c-4.7-1.3-10-1-14.4,0.3L233.8,148.6z"></path> <path class="st3" d="M254.3,321.7l-4.1-10.2l-4.2,10.2H254.3z M241.8,332.2h-8.7l12.4-28h9.3l12.3,28h-8.7l-2.3-5.7h-12.1 L241.8,332.2z"></path> <path class="st0" d="M220.4,171.3c-1.6-2.5-0.4-7.7-0.8-11.4c-0.3-5.9,2.1-9.1,2.3-14.5c3.6,0.7,7.6,3.1,11.9,3.1l1.1,2.5 c-3.2,1-5.9,2.4-7.7,4.2c0.5,6.6-1.3,10.8-0.8,17.5C223.3,173.4,222.9,171.3,220.4,171.3z"></path> <path class="st0" d="M245.5,210.8c-15.9-1-22.7,7.2-34.2,10.6c0-0.3,0-0.5,0-0.8c4.5-9.2,10-17.4,11.4-29.7 c7.7-8.8,30-11.7,44.2-6.8c6,7.5,9.2,17.9,14.5,26.2c1,1.2,2.5,3.2,3.5,4.9c0.6,1,1,1.9,1,2.4c0,0.8,0,1.5,0,2.3 c-4.9-1.4-9.5-3.1-14.2-4.7c-6.5-2.2-13.2-4.2-21.6-4.4C248.5,210.8,247,210.8,245.5,210.8z"></path> <path class="st0" d="M186.9,138.6c3.4-1.1,7.9,1.3,12.2,1.5c0.3,0,0.5,0,0.8,0c2.7,1.6,7.4,1.2,10.6,2.3 c4.8,3.5,2.2,11.9,0.8,17.5c-5.8-1.8-8.4-6.8-13.7-9.1C194.3,146.4,188.4,144.7,186.9,138.6z"></path> <path class="st2" d="M202.9,371.2l2.2-4.6c1.7,0.6,3.8,1,6.2,1c0.3-2.5-1-6.6,1.5-6.8c5.3-0.8,7.7,1.4,8.4,5.3 c2.5,2.7-4.5,4.4-2.3,6.8c6.8,3,15.8,9.7,25.1,5.3c0-0.3,0-0.5,0-0.8c3-2.7,4.1-10.2,2.3-15.2c-1.9-2.2-6-2.2-7.6-4.6 c-0.3,0-0.5,0-0.8,0c-8-5.4-15.8-11.1-22.8-17.5c-2.9-3.7-6.7-6.5-9.2-10.6c-2.8-3.1-8.4-7.2-7.6-11.4c0.3-0.1,0.6-0.2,1-0.3 c4.2-0.7,7.2,3.8,9.7,6.3c3.2,3.2,5.8,7.5,9.9,9.1c0-1.8,1.3-2.3,0.8-4.6c0-0.3,0-0.5,0-0.8c0.3-2.3,0.2-4.3-0.1-6.1l5.7-1.2 c0.9,4.4,2,8.7,3.2,12.9c1.3,4.4,2.9,8.7,4.9,12.6c9.1,1.3,22.4,2.9,31.1,0l0.9,2.6c-6.1,2.2-13.7,2.9-21.3,3.5 c0.4,5.5,6.2,6.7,12.9,6.1c0,0,0,0,0,0c1.7-0.2,3.5-0.4,5.3-0.8c1,8,7.1,10.7,10.7,16c-4.8,2.8-12.8,2.4-16,6.8 c7.9,1,15.3-4.9,24.3-5.3c0-0.1-0.1-0.3-0.2-0.4l7.8-0.3c3.9,2.2,7.6,4.6,12.9,5.3c0.3,0,0.5,0,0.8,0c0.2-0.2,0.4-0.3,0.6-0.5 l2.9,8c-12.1,4.6-25.9,7.5-41.6,8.5c-4.6,1.3-14.4,1.3-19,0c-13.9-1-26.4-3.4-37.7-7.1l1.6-5.1c6.1,2,12.8,3.2,20.1,1.6 c-6.4-4.5-13.9-8-21.4-11.4C206.3,372.8,204.6,372,202.9,371.2z"></path> <path class="st0" d="M211.2,134.8c-8.4-0.5-15.4-2.3-23.6-3C191.6,122.9,212.3,118.6,211.2,134.8z"></path> <path class="st0" d="M209,324.2c-2.5-2.5-5.6-7.1-9.7-6.3l-0.5-3.2c6.1-0.9,12.2-1.8,18.6-1.8c0.5,3.2,1.6,5.9,2.2,9.1 c0.3,1.8,0.4,3.8,0.1,6.1c0,0.3,0,0.5,0,0.8c0.6,2.3-0.8,2.8-0.8,4.6C214.8,331.7,212.2,327.4,209,324.2z"></path> <path class="st0" d="M186,212.9c3.2-2.6,14.5-11.7,19.5-15.7c0.1-0.1,0.1-0.1,0.2-0.2c4.6-5.1,8.5-10.8,13.1-15.8 c-1.7,12.7-8.2,27.3-15.2,37.3c-3,16,3.6,28.2,3.8,43.4c-1.8-0.3-1.7-2.3-3-3c-8.2-12.8-15.2-26.8-21.3-41.8 c0.8-1.7,2.1-3.1,3.4-4.3C186.3,212.8,186.1,212.8,186,212.9z"></path> <path class="st0" d="M183.3,360.7c2.1-0.2,3.3,1.6,3.3,1.6c2,1.3,4,2.6,16.3,8.9c1.7,0.8,3.5,1.6,5.2,2.4 c7.5,3.5,15,6.9,21.4,11.4c-7.3,1.7-14,0.5-20.1-1.6c-4.1-1.4-7.8-3.1-11.1-4.5c-2.8-2.7-6.1-6.1-9.1-9.1c-2.7-2.7-7.9-5-6.9-9.1 C182.6,360.7,183,360.7,183.3,360.7z"></path> <path class="st0" d="M177.8,218.4c8.4,14.3,14.6,30.7,23.4,44.7c1.6,2.1,3.4,5.1,4,7.8c4.8,9.6,9.4,19.5,9.1,34.2 c-6.2,0.7-9.9,3.8-17.5,3c-14-6.6-19.7-27.7-16-47.2c-0.7-3.8-3.7-5.4-5.3-8.4c-2.3,0.1-3.1,5.4-4.5,3.8c-1-11.4-1.2-27-1.6-36.5 C171.5,218.8,174.1,218.1,177.8,218.4z"></path> <path class="st0" d="M177.8,301.4c-5.5-0.6-10.5-1.6-14.5-3.8c10-4.2,17.3-0.4,21.3,6.8C183,305.7,179,303,177.8,301.4z"></path> <path class="st0" d="M167.1,176.6c5.6-5.5,10.6-11.5,14.9-18.2c1.5-2.3,2.8-4.5,4.1-6.9c0.5,0,1,0,1.5,0c0.3,0,0.5,0,0.8,0 c7.3,4.9,14.3,10,19.8,16.7c-3.8,15.5-12.8,25.7-24.3,33.5c-0.3,0-0.5,0-0.8,0c-2.2,0.6-3.1,2.5-6.1,2.3 C173,195.6,170.2,185.9,167.1,176.6z"></path> <path class="st2" d="M167.1,176.6l-5.3,0.7c-0.4-2.4-0.7-4.9-0.8-7.6c4.5-4,9-7.8,12.3-12.9l8.7,1.6 C177.7,165.1,172.7,171.2,167.1,176.6z"></path> <path class="st0" d="M160.3,167.5c3.5-4.8,8.2-8.6,11.4-13.7c0.3,0,0.5,0,0.8,0c0-2.5,0-5.1,0-7.6c0-0.5,0-1,0-1.5 c2.3,0.2,4.7-2.1,5.4,0.8c0,0.3,0,0.5,0,0.8c-0.9,4.2-2.4,7.7-4.4,10.7c-3.3,5.1-7.9,8.9-12.3,12.9c0.1,2.7,0.3,5.2,0.8,7.6 c1.7,10.9,6.1,19.3,9.2,28.9c-0.4,2.7-4.2,1.8-5.4,3.8c-4.1,0.2-7.4,1.2-12.2,0.8c-1.9-6.1-2.2-14.4-0.2-20.3 c0-0.2,0-0.3,0.1-0.5c0.6-1.9,3.8-6.7,5-9.4C159.4,176.7,159.2,171.4,160.3,167.5z"></path> <path class="st0" d="M132.9,204.8c1.7-4.8,0.3-12.8,3.8-16c2.3-1.6,7.8,1.6,10.6-0.8c2.5,2.1-2.8,2.7-3,4.6 c1.3,5,0.6,12.1,0.8,18.3c-4.3-0.5-8.6-1-12.2-2.3c0-1,0-2,0-3C132.9,205.3,132.9,205,132.9,204.8z"></path> <path class="st0" d="M132.9,219.2c6.6,0.5,13.1,1,20.5,0.8c1.9,2.2,3.8,4.3,4.6,7.6c0.3,2.8,1,5.1,2.3,6.8 c1.2,6.1,1.9,12.8,1.5,20.5c-4.5-6.8-4.6-18.3-6.8-27.4c-3.5-0.6-4.4-3.7-7.6-4.6c-4.8,1.3-7.8,4.4-14.4,3.8 C131.6,224.3,132.4,222,132.9,219.2z"></path> <path class="st0" d="M154.2,330.3c-11.1-5.9-17.3-23.2-28.9-31.2c1.3-2,4.7,2.8,6.9,0c-2.1-13.1-10.4-23.4-6.9-39.6 c3.7,8,2.7,20.6,6.1,28.9c0,0.3,0,0.5,0,0.8c1.7,6.7,5.2,11.6,9.1,16c12.8,3.4,27,10.2,42.6,10.6c5.2,0.2,10.4-0.5,15.6-1.2 l0.5,3.2c-0.3,0.1-0.6,0.1-1,0.3c-0.8,4.2,4.8,8.3,7.6,11.4c2.5,4.1,6.3,6.9,9.2,10.6c7,6.4,14.8,12.1,22.8,17.5 c0.3,0,0.5,0,0.8,0c1.7,2.4,5.8,2.4,7.6,4.6c1.7,5,0.7,12.5-2.3,15.2c0,0.3,0,0.5,0,0.8c-9.3,4.3-18.3-2.3-25.1-5.3 c-2.2-2.4,4.8-4.1,2.3-6.8c-0.7-3.9-3.1-6.1-8.4-5.3c-2.5,0.3-1.2,4.4-1.5,6.8c-2.4,0.1-4.5-0.3-6.2-1c-2.7-1-4.8-2.6-6.7-4.4 c-0.5-2.8-0.8-5.8-1.5-8.4c-9.3-8-10-24.5-17.5-34.2c-8.2-6.5-23.7-5.7-35-9.1c-0.1,1.1-0.1,2.1,0.1,3.1c0,0.3,0,0.5,0.1,0.6 C145.8,320.2,151.6,324.9,154.2,330.3z"></path> <path class="st2" d="M256.1,116.5c17.6,3.7,30,12.6,45.6,18.3c2.4-1.9,9,0.4,9.2-3.8c-0.5-4.7-5.4-0.3-9.2-1.5 c-4.8-1.7-7.1-7.1-12.2-9.9C281,114.8,268.6,115.5,256.1,116.5z M236.3,162.2c-1.6,5.1-0.6,11.7,2.3,14.5 c7.9,0.5,13.4-1.3,19.8-2.3c0.4-5.8-0.3-10.3-1.5-14.5C250.8,158.7,239.4,157.9,236.3,162.2z M211.2,134.8 c1-16.2-19.7-11.9-23.6-3C195.8,132.5,202.9,134.3,211.2,134.8z M205.5,197.2c-5,4-16.3,13.1-19.5,15.7c0.1,0,0.3-0.1,0.6-0.2 c-1.4,1.2-2.6,2.6-3.4,4.3c6,15,13,29.1,21.3,41.8c1.4,0.7,1.3,2.8,3,3c-0.2-15.2-6.8-27.4-3.8-43.4c7-10,13.5-24.6,15.2-37.3 c-4.6,5.1-8.6,10.8-13.1,15.8C205.6,197.1,205.6,197.1,205.5,197.2z M199.1,140.1c-4.3-0.3-8.8-2.6-12.2-1.5 c1.5,6.1,7.4,7.8,10.6,12.2c5.3,2.3,7.9,7.4,13.7,9.1c1.4-5.6,4-14-0.8-17.5c-3.2-1.1-8-0.7-10.6-2.3 C199.6,140.1,199.3,140.1,199.1,140.1z M184.6,304.4c-4-7.3-11.3-11-21.3-6.8c4,2.2,9,3.2,14.5,3.8 C179,303,183,305.7,184.6,304.4z M169.4,220c0.3,9.5,0.6,25.1,1.6,36.5c1.4,1.6,2.3-3.7,4.5-3.8c1.6,2.9,4.6,4.5,5.3,8.4 c-3.7,19.4,2,40.6,16,47.2c7.6,0.8,11.3-2.4,17.5-3c0.2-14.7-4.3-24.6-9.1-34.2c-0.6-2.7-2.4-5.7-4-7.8 c-8.8-13.9-15-30.4-23.4-44.7C174.1,218.1,171.5,218.8,169.4,220z M153.2,190.5c-2,6-1.7,14.3,0.2,20.3c4.8,0.4,8.1-0.6,12.2-0.8 c1.1-2,5-1.1,5.4-3.8c-3.1-9.7-7.4-18-9.2-28.9l5.3-0.7c3.1,9.3,5.9,19,9.9,27.4c2.9,0.2,3.9-1.6,6.1-2.3c0.3,0,0.5,0,0.8,0 c11.5-7.7,20.5-18,24.3-33.5c-5.5-6.7-12.5-11.9-19.8-16.7c-0.3,0-0.5,0-0.8,0c-0.5,0-1,0-1.5,0c-1.3,2.4-2.6,4.7-4.1,6.9 l-8.7-1.6c2-3,3.6-6.5,4.4-10.7c0-0.3,0-0.5,0-0.8c-0.7-2.9-3.1-0.6-5.4-0.8c0,0.5,0,1,0,1.5c0,2.5,0,5.1,0,7.6 c-0.3,0-0.5,0-0.8,0c-3.2,5.1-7.9,8.8-11.4,13.7c-1.1,4-0.9,9.2-2,13.2c-1.2,2.7-4.4,7.4-5,9.4 C153.3,190.1,153.2,190.3,153.2,190.5z M136.7,188.8c-3.4,3.2-2.1,11.1-3.8,16c0,0.3,0,0.5,0,0.8c0,1,0,2,0,3 c3.5,1.2,7.9,1.7,12.2,2.3c-0.2-6.1,0.5-13.2-0.8-18.3c0.3-1.8,5.5-2.5,3-4.6C144.5,190.4,139,187.2,136.7,188.8z M153.4,220 c-7.4,0.3-13.9-0.2-20.5-0.8c-0.5,2.8-1.3,5.1,0,7.6c6.7,0.6,9.7-2.5,14.4-3.8c3.2,0.9,4.1,4,7.6,4.6c2.3,9.1,2.3,20.5,6.8,27.4 c0.4-7.8-0.3-14.4-1.5-20.5c-1.3-1.8-2-4.1-2.3-6.8C157.2,224.3,155.3,222.2,153.4,220z M104.7,259.5 c-5.3-62.7,26.1-106.7,63.7-132.1c0,0,0.1-0.1,0.1-0.1c0.1-0.1,0.2-0.1,0.3-0.2c0,0,0,0,0.1,0c0.3-0.2,0.7-0.4,1.1-0.7 c4.9-3,14.1-8.1,18.5-10.5c10.8-5.2,23-9,36.9-11.1c8.1-0.9,22.5-1.9,34-1.4c0.2,0,0.4,0.1,0.6,0.1c0.5,0,1,0,1.4,0 c0.5,0,1.1,0.1,1.6,0.1c28.5,3.2,51.2,12.1,69.8,25.3l-6.4,6.1c-0.6,0-1.2,0.2-1.8,0.5c0.3,0.1,0.5,0.3,0.7,0.5 c0.7,2.3,4.2,14,0.9,17c-3.5-1.1-6.7-2.4-8.3-5.3c-0.3,0-0.5,0-0.8,0c-2.6-1.7-4.3-4.3-6.8-6.1c-3.3-0.5-3.4,2.2-6.1,2.3 c-21.6-13.2-44.2-25.2-78.4-25.9c2,7.4-7.2,7.9-6.8,16c0.6,1.4,1.3,2.8,1.5,4.6c6.9,2,14.5,3.2,17.5,9.1 c-1.4,0.6-2.7,0.9-4.1,0.9c-4.2,0-8.3-2.4-11.9-3.1c-0.2,5.4-2.6,8.6-2.3,14.5c0.4,3.7-0.8,8.9,0.8,11.4c2.5,0,2.9,2.2,6.1,1.5 c-0.5-6.7,1.3-10.9,0.8-17.5c1.7-1.8,4.5-3.3,7.7-4.2c4.4-1.3,9.6-1.6,14.4-0.3c0.3,0,0.5,0,0.8,0c0.8,0,1.5,0,2.3,0 c3.9,4.7,9.6,7.6,15.6,10.2l-1.9,4.2c-0.3-0.2-1,0.3-0.8,0.8c0,3.5,0,7.1,0,10.6c3.5,2.3,6.7,5,9.1,8.4c0.2,0.5,0.5,1,0.7,1.5 c0,0,0.1,0,0.1,0c0,0,0,0,0,0.1c4,9.4,9,17.8,13.9,26.3l-4.2,2.4c-1-1.6-2.5-3.7-3.5-4.9c-5.3-8.3-8.5-18.6-14.5-26.2 c-14.1-4.8-36.5-1.9-44.2,6.8c-1.4,12.2-6.9,20.5-11.4,29.7c0,0.3,0,0.5,0,0.8c11.5-3.4,18.3-11.6,34.2-10.6c1.6,0,3,0,4.6,0 c8.4,0.3,15.1,2.2,21.6,4.4l-1.9,5.5c-16.4-4.7-37.8-1.4-50.9,6.8c-0.3,0-0.5,0-0.8,0c-1.2,2.3-5.6,1.5-6.1,4.6 c-0.3,20.1,3.5,40.2,7.6,59.3c2.1,9.8,3.5,19.7,5.5,29.2l-5.7,1.2c-0.5-3.2-1.6-5.9-2.2-9.1c-6.4,0-12.5,1-18.6,1.8 c-5.3,0.7-10.4,1.4-15.6,1.2c-15.6-0.4-29.9-7.2-42.6-10.6c-4-4.4-7.4-9.3-9.1-16c0-0.3,0-0.5,0-0.8c-3.4-8.3-2.4-20.9-6.1-28.9 c-3.5,16.2,4.8,26.4,6.9,39.6c-2.2,2.8-5.6-2-6.9,0c11.6,8,17.8,25.3,28.9,31.2c-2.6-5.4-8.4-10-9.7-16.1 c-0.1-0.1-0.1-0.3-0.1-0.6c-0.2-1-0.2-2-0.1-3.1c11.3,3.4,26.8,2.6,35,9.1c7.6,9.7,8.2,26.2,17.5,34.2c0.7,2.6,1,5.6,1.5,8.4 c1.9,1.7,4,3.4,6.7,4.4l-2.2,4.6c-12.3-6.3-14.3-7.6-16.3-8.9c0,0-1.2-1.7-3.3-1.6c-0.3,0-0.6,0-1,0c-1,4.1,4.2,6.5,6.9,9.1 c3,3.1,6.3,6.5,9.1,9.1c3.3,1.5,7,3.2,11.1,4.5l-1.6,5.1c-2.3-0.7-4.4-1.5-6.6-2.3c-0.9-0.4-1.8-0.8-2.8-1.2 c-1.3-0.5-2.7-1.1-4-1.7c-0.3-0.2-0.7-0.3-1-0.4c-0.9-0.4-1.7-0.8-2.5-1.2c-1.9-0.9-3.7-1.8-5.5-2.9c-0.2-0.1-0.3-0.1-0.5-0.2 c-16.6-9-30.4-20.5-34.5-24.1c-0.7-0.6-1.3-1.2-2-1.8c-3.9-4-14.5-16.5-16.3-18.7c-2.2-3.1-4.3-6.3-6.3-9.7 c-9.4-16.9-16.5-38-18.3-45.2C106.3,273.2,105.4,267,104.7,259.5z M128.3,192.6c0-0.5,0-1,0-1.5c-0.2-0.6,0-1.5-0.8-1.5 c-0.9,5.3-5.7,10.3-4.6,15.2c0.8,0,1.5,0,2.3,0c0-0.5,0-1,0-1.5C126.6,199.9,126.9,195.8,128.3,192.6z"></path> <path class="st0" d="M128.3,191.1c0,0.5,0,1,0,1.5c-1.4,3.2-1.7,7.4-3,10.6c0,0.5,0,1,0,1.5c-0.8,0-1.5,0-2.3,0 c-1.2-4.9,3.6-10,4.6-15.2C128.3,189.6,128.2,190.5,128.3,191.1z"></path> </g> <g> </g> </g> </g> </svg> 