<svg data-v-fde0c5aa="" xmlns="http://www.w3.org/2000/svg" viewBox="0 0 300 300" class="font"><!----><defs data-v-fde0c5aa=""><!----></defs><rect data-v-fde0c5aa="" fill="#30C47E" x="0" y="0" width="300px" height="300px" class="logo-background-square"></rect><defs data-v-fde0c5aa=""><!----></defs><g data-v-fde0c5aa="" id="33e53a29-30d1-4f45-a64f-461b396d15b1" fill="#2C4845" transform="matrix(5.504127927973326,0,0,5.504127927973326,35.98198650759656,89.64723642990921)"><path d="M6.78 12.61L6.78 12.61L6.78 12.61Q6.59 12.77 6.31 12.86L6.31 12.86L6.31 12.86Q6.02 12.95 5.64 12.95L5.64 12.95L5.64 12.95Q5.14 12.95 4.81 12.82L4.81 12.82L4.81 12.82Q4.48 12.70 4.38 12.39L4.38 12.39L4.38 12.39Q3.99 11.16 3.74 10.40L3.74 10.40L3.74 10.40Q3.49 9.63 3.35 9.06L3.35 9.06L3.28 9.06L3.28 9.06Q3.23 9.88 3.21 10.56L3.21 10.56L3.21 10.56Q3.19 11.24 3.19 11.89L3.19 11.89L3.19 11.89Q3.18 12.53 3.16 13.19L3.16 13.19L3.16 13.19Q3.14 13.85 3.09 14.64L3.09 14.64L3.09 14.64Q2.91 14.71 2.62 14.76L2.62 14.76L2.62 14.76Q2.32 14.81 2.03 14.81L2.03 14.81L2.03 14.81Q1.41 14.81 1.07 14.62L1.07 14.62L1.07 14.62Q0.73 14.42 0.73 13.90L0.73 13.90L1.13 6.76L1.13 6.76Q1.25 6.58 1.62 6.37L1.62 6.37L1.62 6.37Q2.00 6.16 2.69 6.16L2.69 6.16L2.69 6.16Q3.43 6.16 3.85 6.39L3.85 6.39L3.85 6.39Q4.27 6.62 4.47 7.14L4.47 7.14L4.47 7.14Q4.59 7.48 4.74 7.91L4.74 7.91L4.74 7.91Q4.89 8.34 5.03 8.81L5.03 8.81L5.03 8.81Q5.18 9.27 5.32 9.72L5.32 9.72L5.32 9.72Q5.46 10.18 5.57 10.54L5.57 10.54L5.64 10.54L5.64 10.54Q5.98 9.37 6.31 8.27L6.31 8.27L6.31 8.27Q6.65 7.17 6.93 6.43L6.93 6.43L6.93 6.43Q7.14 6.31 7.47 6.24L7.47 6.24L7.47 6.24Q7.80 6.16 8.20 6.16L8.20 6.16L8.20 6.16Q8.89 6.16 9.32 6.36L9.32 6.36L9.32 6.36Q9.76 6.57 9.83 6.94L9.83 6.94L9.83 6.94Q9.88 7.22 9.95 7.81L9.95 7.81L9.95 7.81Q10.01 8.39 10.08 9.11L10.08 9.11L10.08 9.11Q10.15 9.84 10.22 10.65L10.22 10.65L10.22 10.65Q10.29 11.47 10.35 12.22L10.35 12.22L10.35 12.22Q10.42 12.96 10.46 13.59L10.46 13.59L10.46 13.59Q10.50 14.21 10.51 14.55L10.51 14.55L10.51 14.55Q10.28 14.69 10.02 14.75L10.02 14.75L10.02 14.75Q9.76 14.81 9.35 14.81L9.35 14.81L9.35 14.81Q8.82 14.81 8.46 14.63L8.46 14.63L8.46 14.63Q8.09 14.45 8.06 13.92L8.06 13.92L8.06 13.92Q7.98 12.39 7.96 11.17L7.96 11.17L7.96 11.17Q7.94 9.95 7.90 9.13L7.90 9.13L7.83 9.13L7.83 9.13Q7.69 9.67 7.42 10.50L7.42 10.50L7.42 10.50Q7.15 11.33 6.78 12.61ZM18.93 11.30L18.93 11.30L18.93 11.30Q18.93 12.17 18.66 12.85L18.66 12.85L18.66 12.85Q18.40 13.52 17.91 13.99L17.91 13.99L17.91 13.99Q17.43 14.45 16.76 14.69L16.76 14.69L16.76 14.69Q16.09 14.92 15.26 14.92L15.26 14.92L15.26 14.92Q14.43 14.92 13.76 14.67L13.76 14.67L13.76 14.67Q13.09 14.42 12.61 13.95L12.61 13.95L12.61 13.95Q12.12 13.48 11.86 12.81L11.86 12.81L11.86 12.81Q11.59 12.14 11.59 11.30L11.59 11.30L11.59 11.30Q11.59 10.47 11.86 9.80L11.86 9.80L11.86 9.80Q12.12 9.13 12.61 8.66L12.61 8.66L12.61 8.66Q13.09 8.19 13.76 7.94L13.76 7.94L13.76 7.94Q14.43 7.69 15.26 7.69L15.26 7.69L15.26 7.69Q16.09 7.69 16.76 7.95L16.76 7.95L16.76 7.95Q17.43 8.20 17.91 8.67L17.91 8.67L17.91 8.67Q18.40 9.14 18.66 9.81L18.66 9.81L18.66 9.81Q18.93 10.49 18.93 11.30ZM14.03 11.30L14.03 11.30L14.03 11.30Q14.03 12.15 14.36 12.61L14.36 12.61L14.36 12.61Q14.69 13.06 15.27 13.06L15.27 13.06L15.27 13.06Q15.86 13.06 16.18 12.60L16.18 12.60L16.18 12.60Q16.49 12.14 16.49 11.30L16.49 11.30L16.49 11.30Q16.49 10.46 16.17 10.00L16.17 10.00L16.17 10.00Q15.85 9.55 15.26 9.55L15.26 9.55L15.26 9.55Q14.67 9.55 14.35 10.00L14.35 10.00L14.35 10.00Q14.03 10.46 14.03 11.30ZM20.10 6.01L20.10 6.01L20.10 6.01Q20.10 5.47 20.46 5.11L20.46 5.11L20.46 5.11Q20.82 4.75 21.41 4.75L21.41 4.75L21.41 4.75Q21.99 4.75 22.35 5.11L22.35 5.11L22.35 5.11Q22.71 5.47 22.71 6.01L22.71 6.01L22.71 6.01Q22.71 6.54 22.35 6.90L22.35 6.90L22.35 6.90Q21.99 7.27 21.41 7.27L21.41 7.27L21.41 7.27Q20.82 7.27 20.46 6.90L20.46 6.90L20.46 6.90Q20.10 6.54 20.10 6.01ZM19.26 15.88L19.63 15.65L19.63 15.65Q19.94 15.46 20.08 15.11L20.08 15.11L20.08 15.11Q20.22 14.77 20.22 14.35L20.22 14.35L20.22 7.99L20.22 7.99Q20.37 7.97 20.67 7.92L20.67 7.92L20.67 7.92Q20.97 7.87 21.28 7.87L21.28 7.87L21.28 7.87Q21.59 7.87 21.83 7.91L21.83 7.91L21.83 7.91Q22.08 7.95 22.25 8.08L22.25 8.08L22.25 8.08Q22.41 8.20 22.51 8.42L22.51 8.42L22.51 8.42Q22.60 8.64 22.60 8.99L22.60 8.99L22.60 14.57L22.60 14.57Q22.60 15.16 22.46 15.64L22.46 15.64L22.46 15.64Q22.32 16.11 22.06 16.46L22.06 16.46L22.06 16.46Q21.80 16.80 21.43 16.99L21.43 16.99L21.43 16.99Q21.06 17.18 20.59 17.18L20.59 17.18L20.59 17.18Q19.98 17.18 19.63 16.81L19.63 16.81L19.63 16.81Q19.28 16.44 19.26 15.88L19.26 15.88ZM24.05 6.01L24.05 6.01L24.05 6.01Q24.05 5.47 24.41 5.11L24.41 5.11L24.41 5.11Q24.77 4.75 25.35 4.75L25.35 4.75L25.35 4.75Q25.94 4.75 26.30 5.11L26.30 5.11L26.30 5.11Q26.66 5.47 26.66 6.01L26.66 6.01L26.66 6.01Q26.66 6.54 26.30 6.90L26.30 6.90L26.30 6.90Q25.94 7.27 25.35 7.27L25.35 7.27L25.35 7.27Q24.77 7.27 24.41 6.90L24.41 6.90L24.41 6.90Q24.05 6.54 24.05 6.01ZM26.54 8.99L26.54 14.69L26.54 14.69Q26.39 14.71 26.09 14.76L26.09 14.76L26.09 14.76Q25.79 14.81 25.48 14.81L25.48 14.81L25.48 14.81Q25.17 14.81 24.93 14.77L24.93 14.77L24.93 14.77Q24.68 14.73 24.51 14.60L24.51 14.60L24.51 14.60Q24.35 14.48 24.26 14.26L24.26 14.26L24.26 14.26Q24.16 14.04 24.16 13.69L24.16 13.69L24.16 7.99L24.16 7.99Q24.32 7.97 24.62 7.92L24.62 7.92L24.62 7.92Q24.92 7.87 25.23 7.87L25.23 7.87L25.23 7.87Q25.54 7.87 25.78 7.91L25.78 7.91L25.78 7.91Q26.03 7.95 26.19 8.08L26.19 8.08L26.19 8.08Q26.36 8.20 26.45 8.42L26.45 8.42L26.45 8.42Q26.54 8.64 26.54 8.99L26.54 8.99ZM30.44 10.25L30.44 12.36L30.44 12.36Q30.44 12.73 30.67 12.88L30.67 12.88L30.67 12.88Q30.90 13.03 31.32 13.03L31.32 13.03L31.32 13.03Q31.53 13.03 31.75 13.00L31.75 13.00L31.75 13.00Q31.98 12.96 32.14 12.91L32.14 12.91L32.14 12.91Q32.27 13.06 32.36 13.25L32.36 13.25L32.36 13.25Q32.45 13.44 32.45 13.71L32.45 13.71L32.45 13.71Q32.45 14.24 32.05 14.57L32.05 14.57L32.05 14.57Q31.65 14.91 30.65 14.91L30.65 14.91L30.65 14.91Q29.41 14.91 28.75 14.35L28.75 14.35L28.75 14.35Q28.08 13.79 28.08 12.53L28.08 12.53L28.08 6.54L28.08 6.54Q28.24 6.50 28.53 6.45L28.53 6.45L28.53 6.45Q28.81 6.40 29.13 6.40L29.13 6.40L29.13 6.40Q29.75 6.40 30.09 6.62L30.09 6.62L30.09 6.62Q30.44 6.83 30.44 7.53L30.44 7.53L30.44 8.43L32.27 8.43L32.27 8.43Q32.35 8.58 32.43 8.81L32.43 8.81L32.43 8.81Q32.51 9.04 32.51 9.32L32.51 9.32L32.51 9.32Q32.51 9.81 32.29 10.03L32.29 10.03L32.29 10.03Q32.07 10.25 31.71 10.25L31.71 10.25L30.44 10.25ZM40.70 11.30L40.70 11.30L40.70 11.30Q40.70 12.17 40.43 12.85L40.43 12.85L40.43 12.85Q40.17 13.52 39.68 13.99L39.68 13.99L39.68 13.99Q39.20 14.45 38.53 14.69L38.53 14.69L38.53 14.69Q37.86 14.92 37.03 14.92L37.03 14.92L37.03 14.92Q36.20 14.92 35.53 14.67L35.53 14.67L35.53 14.67Q34.86 14.42 34.38 13.95L34.38 13.95L34.38 13.95Q33.89 13.48 33.63 12.81L33.63 12.81L33.63 12.81Q33.36 12.14 33.36 11.30L33.36 11.30L33.36 11.30Q33.36 10.47 33.63 9.80L33.63 9.80L33.63 9.80Q33.89 9.13 34.38 8.66L34.38 8.66L34.38 8.66Q34.86 8.19 35.53 7.94L35.53 7.94L35.53 7.94Q36.20 7.69 37.03 7.69L37.03 7.69L37.03 7.69Q37.86 7.69 38.53 7.95L38.53 7.95L38.53 7.95Q39.20 8.20 39.68 8.67L39.68 8.67L39.68 8.67Q40.17 9.14 40.43 9.81L40.43 9.81L40.43 9.81Q40.70 10.49 40.70 11.30ZM35.80 11.30L35.80 11.30L35.80 11.30Q35.80 12.15 36.13 12.61L36.13 12.61L36.13 12.61Q36.46 13.06 37.04 13.06L37.04 13.06L37.04 13.06Q37.63 13.06 37.95 12.60L37.95 12.60L37.95 12.60Q38.26 12.14 38.26 11.30L38.26 11.30L38.26 11.30Q38.26 10.46 37.94 10.00L37.94 10.00L37.94 10.00Q37.62 9.55 37.03 9.55L37.03 9.55L37.03 9.55Q36.44 9.55 36.12 10.00L36.12 10.00L36.12 10.00Q35.80 10.46 35.80 11.30Z"></path></g><!----><!----></svg>