<?xml version="1.0" encoding="UTF-8" standalone="no"?><!DOCTYPE svg PUBLIC "-//W3C//DTD SVG 1.1//EN" "http://www.w3.org/Graphics/SVG/1.1/DTD/svg11.dtd"><svg width="100%" height="100%" viewBox="0 0 500 100" version="1.1" xmlns="http://www.w3.org/2000/svg" xmlns:xlink="http://www.w3.org/1999/xlink" xml:space="preserve" xmlns:serif="http://www.serif.com/" fill="#ffc107" style="fill-rule:evenodd;clip-rule:evenodd;stroke-linejoin:round;stroke-miterlimit:2;"><clipPath id="_clip1"><rect x="100" y="0" width="100" height="100"/></clipPath><g clip-path="url(#_clip1)"><path d="M122.575,96.519c-2.413,1.237 -5.15,-0.931 -4.663,-3.7l5.188,-29.563l-22.019,-20.975c-2.056,-1.962 -0.987,-5.55 1.769,-5.937l30.612,-4.35l13.65,-27.044c1.232,-2.437 4.563,-2.437 5.794,0l13.65,27.044l30.613,4.35c2.756,0.387 3.825,3.975 1.762,5.937l-22.012,20.975l5.187,29.563c0.488,2.768 -2.25,4.937 -4.662,3.7l-27.444,-14.1l-27.431,14.1l0.006,-0Z" style="fill-rule:nonzero;"/></g><clipPath id="_clip2"><rect x="300" y="0" width="100" height="100"/></clipPath><g clip-path="url(#_clip2)"><path d="M322.575,96.519c-2.412,1.237 -5.15,-0.931 -4.662,-3.7l5.187,-29.563l-22.019,-20.975c-2.056,-1.962 -0.987,-5.55 1.769,-5.937l30.612,-4.35l13.65,-27.044c1.232,-2.437 4.563,-2.437 5.794,0l13.65,27.044l30.613,4.35c2.756,0.387 3.825,3.975 1.762,5.937l-22.012,20.975l5.187,29.563c0.488,2.768 -2.25,4.937 -4.662,3.7l-27.444,-14.1l-27.431,14.1l0.006,-0Z" style="fill-rule:nonzero;"/></g><clipPath id="_clip3"><rect x="200" y="0" width="100" height="100"/></clipPath><g clip-path="url(#_clip3)"><path d="M222.575,96.519c-2.413,1.237 -5.15,-0.931 -4.663,-3.7l5.188,-29.563l-22.019,-20.975c-2.056,-1.962 -0.987,-5.55 1.769,-5.937l30.612,-4.35l13.651,-27.044c1.231,-2.437 4.562,-2.437 5.793,0l13.65,27.044l30.613,4.35c2.756,0.387 3.825,3.975 1.762,5.937l-22.012,20.975l5.187,29.563c0.488,2.768 -2.25,4.937 -4.662,3.7l-27.444,-14.1l-27.431,14.1l0.006,-0Z" style="fill-rule:nonzero;"/></g><clipPath id="_clip4"><rect x="0" y="0" width="100" height="100"/></clipPath><g clip-path="url(#_clip4)"><path d="M22.575,96.519c-2.412,1.237 -5.15,-0.931 -4.662,-3.7l5.187,-29.563l-22.019,-20.975c-2.056,-1.962 -0.987,-5.55 1.769,-5.937l30.612,-4.35l13.651,-27.044c1.231,-2.437 4.562,-2.437 5.793,0l13.65,27.044l30.613,4.35c2.756,0.387 3.825,3.975 1.762,5.937l-22.012,20.975l5.187,29.563c0.488,2.768 -2.25,4.937 -4.662,3.7l-27.444,-14.1l-27.431,14.1l0.006,-0Z" style="fill-rule:nonzero;"/></g><clipPath id="_clip5"><rect x="400" y="0" width="100" height="100"/></clipPath><g clip-path="url(#_clip5)"><path d="M422.575,96.519c-2.412,1.237 -5.15,-0.931 -4.662,-3.7l5.187,-29.563l-22.019,-20.975c-2.056,-1.962 -0.987,-5.55 1.769,-5.937l30.612,-4.35l13.65,-27.044c1.232,-2.437 4.563,-2.437 5.794,0l13.65,27.044l30.613,4.35c2.756,0.387 3.825,3.975 1.762,5.937l-22.012,20.975l5.187,29.563c0.488,2.768 -2.25,4.937 -4.662,3.7l-27.444,-14.1l-27.431,14.1l0.006,-0Z" style="fill-rule:nonzero;"/></g></svg>